<svg width="42" height="42" viewBox="6 6 42 42" fill="none" xmlns="http://www.w3.org/2000/svg">
  <path fill-rule="evenodd" clip-rule="evenodd" d="M41.2012 34.4453C40.787 34.4453 40.4512 34.7811 40.4512 35.1953V38.1953C40.4512 38.8857 39.8915 39.4453 39.2012 39.4453H14.2012C13.5108 39.4453 12.9512 38.8857 12.9512 38.1953V18.1953C12.9512 17.505 13.5108 16.9453 14.2012 16.9453H39.2012C39.8915 16.9453 40.4512 17.505 40.4512 18.1953V25.1953C40.4512 25.6095 40.787 25.9453 41.2012 25.9453C41.6154 25.9453 41.9512 25.6095 41.9512 25.1953V18.1953C41.9512 16.6765 40.72 15.4453 39.2012 15.4453H14.2012C12.6824 15.4453 11.4512 16.6765 11.4512 18.1953V38.1953C11.4512 39.7141 12.6824 40.9453 14.2012 40.9453H39.2012C40.72 40.9453 41.9512 39.7141 41.9512 38.1953V35.1953C41.9512 34.7811 41.6154 34.4453 41.2012 34.4453ZM41.2012 28.4453C40.787 28.4453 40.4512 28.7811 40.4512 29.1953V31.1953C40.4512 31.6095 40.787 31.9453 41.2012 31.9453C41.6154 31.9453 41.9512 31.6095 41.9512 31.1953V29.1953C41.9512 28.7811 41.6154 28.4453 41.2012 28.4453ZM16.9809 36.0009C16.6889 36.0009 16.4512 35.7378 16.4512 35.4132V34.3663C16.4512 34.0424 16.6889 33.7786 16.9809 33.7786H21.4856C21.7775 33.7786 22.0153 34.0424 22.0153 34.3663V35.4132C22.0153 35.7378 21.7775 36.0009 21.4856 36.0009H16.9809ZM24.2409 26.525C24.2409 26.8489 24.4787 27.112 24.7706 27.112H29.2753C29.5673 27.112 29.805 26.8489 29.805 26.525V25.4774C29.805 25.1535 29.5673 24.8898 29.2753 24.8898H24.7706C24.4787 24.8898 24.2409 25.1535 24.2409 25.4774V26.525ZM32.5603 27.112C32.2684 27.112 32.0307 26.8489 32.0307 26.525V25.4774C32.0307 25.1535 32.2684 24.8898 32.5603 24.8898H37.0651C37.357 24.8898 37.5948 25.1535 37.5948 25.4774V26.525C37.5948 26.8489 37.357 27.112 37.0651 27.112H32.5603ZM32.0307 22.0805C32.0307 22.4044 32.2684 22.6675 32.5603 22.6675H37.0651C37.357 22.6675 37.5948 22.4044 37.5948 22.0805V21.033C37.5948 20.7091 37.357 20.4453 37.0651 20.4453H32.5603C32.2684 20.4453 32.0307 20.7091 32.0307 21.033V22.0805ZM16.9809 22.6675C16.6889 22.6675 16.4512 22.4044 16.4512 22.0805V21.033C16.4512 20.7091 16.6889 20.4453 16.9809 20.4453H21.4856C21.7775 20.4453 22.0153 20.7091 22.0153 21.033V22.0805C22.0153 22.4044 21.7775 22.6675 21.4856 22.6675H16.9809ZM32.0307 34.3028C32.0307 34.6267 32.2684 34.8898 32.5603 34.8898H37.0651C37.357 34.8898 37.5948 34.6267 37.5948 34.3028V33.2552C37.5948 32.9313 37.357 32.6675 37.0651 32.6675H32.5603C32.2684 32.6675 32.0307 32.9313 32.0307 33.2552V34.3028ZM16.9809 31.5564C16.6889 31.5564 16.4512 31.2927 16.4512 30.9688V29.9205C16.4512 29.5973 16.6889 29.3342 16.9809 29.3342H21.4856C21.7775 29.3342 22.0153 29.5973 22.0153 29.9205V30.9688C22.0153 31.2927 21.7775 31.5564 21.4856 31.5564H16.9809ZM24.2409 30.9688C24.2409 31.2927 24.4787 31.5564 24.7706 31.5564H29.2753C29.5673 31.5564 29.805 31.2927 29.805 30.9688V29.9205C29.805 29.5973 29.5673 29.3342 29.2753 29.3342H24.7706C24.4787 29.3342 24.2409 29.5973 24.2409 29.9205V30.9688Z" fill="#063A54"/>
</svg>
