<svg width="16" height="15" viewBox="0 0 16 15" fill="none" xmlns="http://www.w3.org/2000/svg">
  <path fill-rule="evenodd" clip-rule="evenodd" d="M8.61835 0.293872C8.2246 -0.0934006 7.5862 -0.0933997 7.19245 0.293873L0.668557 6.71045C0.274808 7.09773 0.274808 7.72562 0.668558 8.11289L7.37202 14.7061C7.76577 15.0934 8.40416 15.0934 8.79791 14.7061L15.3218 8.2895C15.7156 7.90223 15.7156 7.27434 15.3218 6.88707L8.61835 0.293872ZM7.05308 4.25181C7.05308 3.73026 7.47587 3.30747 7.99741 3.30747C8.51896 3.30747 8.94175 3.73026 8.94175 4.25181V7.36314C8.94175 7.88468 8.51896 8.30747 7.99741 8.30747C7.47587 8.30747 7.05308 7.88468 7.05308 7.36314V4.25181ZM6.81702 10.6601C6.81702 10.0194 7.33644 9.49998 7.97717 9.49998H8.0177C8.65844 9.49998 9.17786 10.0194 9.17786 10.6601C9.17786 11.3009 8.65844 11.8203 8.0177 11.8203H7.97717C7.33644 11.8203 6.81702 11.3009 6.81702 10.6601Z" fill="#CC2424"/>
</svg>
