<svg width="80" height="80" viewBox="0 0 80 80" fill="none" xmlns="http://www.w3.org/2000/svg">
  <path fill-rule="evenodd" clip-rule="evenodd" d="M40 80C17.908 80 -1.56557e-06 62.092 -3.49691e-06 40C-5.42825e-06 17.908 17.908 5.42825e-06 40 3.49691e-06C62.092 1.56557e-06 80 17.908 80 40C80 62.092 62.092 80 40 80ZM35.0005 23.2366C35.0005 25.998 37.2391 28.2366 40.0005 28.2366C42.7619 28.2366 45.0005 25.998 45.0005 23.2366C45.0005 20.4751 42.7619 18.2366 40.0005 18.2366C37.2391 18.2366 35.0005 20.4751 35.0005 23.2366ZM44 61.5C45.933 61.5 47.5 59.933 47.5 58C47.5 56.067 45.933 54.5 44 54.5L43.5005 54.5L43.5005 38L43.5005 34.5L40.0005 34.5L36.0005 34.5C34.0675 34.5 32.5005 36.067 32.5005 38C32.5005 39.933 34.0675 41.5 36.0005 41.5L36.5005 41.5L36.5005 54.5L36 54.5C34.067 54.5 32.5 56.067 32.5 58C32.5 59.933 34.067 61.5 36 61.5L36.5005 61.5L40.0005 61.5L44 61.5Z" fill="#0A78B1"/>
</svg>
