<svg width="42" height="42" viewBox="0 0 42 42" fill="none" xmlns="http://www.w3.org/2000/svg">
  <path fill-rule="evenodd" clip-rule="evenodd"
        d="M27.0491 11.3662C27.7088 10.3635 28.0973 9.1245 28.0973 7.87675C28.0973 4.4975 25.3498 1.75 21.9706 1.75C18.5913 1.75 15.8438 4.4975 15.8438 7.87675C15.8438 10.9742 18.2098 13.552 21.2846 13.9317C22.7213 12.369 24.7636 11.3697 27.0491 11.3662ZM20.9381 19.2412C20.9381 22.6205 23.6856 25.368 27.0648 25.368C30.4441 25.368 33.1916 22.6205 33.1916 19.2412C33.1916 15.862 30.4441 13.1145 27.0648 13.1145C23.6856 13.1145 20.9381 15.862 20.9381 19.2412ZM27.0648 27.118C22.7231 27.118 19.1881 23.5847 19.1881 19.2412C19.1881 17.8867 19.5626 16.632 20.1681 15.5172C16.6716 14.672 14.0938 11.5517 14.0938 7.87675C14.0938 3.53325 17.6271 0 21.9706 0C26.3123 0 29.8473 3.53325 29.8473 7.87675C29.8473 9.1735 29.5201 10.4773 28.9391 11.6147C32.3761 12.4618 34.9416 15.547 34.9416 19.2412C34.9416 23.5847 31.4083 27.118 27.0648 27.118ZM13.279 36.8006C20.986 40.2463 27.5765 39.5148 28.9783 38.8761L39.2192 34.2071C39.6795 33.9971 39.935 33.6663 39.9787 33.2218C40.0243 32.7301 39.781 32.1893 39.3872 31.9076C39.018 31.6433 38.577 31.6276 38.0765 31.8568L31.2008 34.9911C31.2393 35.4076 31.206 35.8311 31.0888 36.2301C30.8682 36.9826 30.4028 37.6143 29.778 38.0081C29.323 38.2968 28.7997 38.4438 28.252 38.4438C27.9475 38.4438 27.636 38.3983 27.3228 38.3073L17.1553 35.3236C16.6915 35.1871 16.4255 34.7006 16.562 34.2368C16.6968 33.7713 17.1868 33.5088 17.647 33.6436L27.8145 36.6273C28.21 36.7428 28.5548 36.7113 28.8417 36.5293C29.1042 36.3648 29.3107 36.0761 29.4105 35.7383C29.4875 35.4723 29.491 35.1696 29.3982 34.8896C29.3956 34.8843 29.3917 34.8799 29.3877 34.8756C29.3838 34.8712 29.3799 34.8668 29.3772 34.8616C29.3702 34.8455 29.3678 34.8288 29.3653 34.8118C29.3635 34.7993 29.3617 34.7867 29.358 34.7741C29.2267 34.4923 28.9818 34.2456 28.5443 34.1178L18.8668 31.2776C17.5893 30.9013 13.2195 30.6056 8.75 31.2338V37.0123C10.2393 36.6116 11.9788 36.2196 13.279 36.8006ZM7 39.8053H1.75V29.3053H7V39.8053ZM30.5235 33.3776L37.352 30.2643C38.416 29.7796 39.5272 29.8583 40.4022 30.4813C41.3105 31.1288 41.8267 32.2716 41.72 33.3898C41.6167 34.4538 40.9692 35.3323 39.9437 35.7996L29.7045 40.4686C28.8435 40.8606 27.174 41.1616 24.9882 41.1616C21.6895 41.1616 17.2165 40.4773 12.565 38.3983C11.7139 38.0154 9.96444 38.4928 8.79713 38.8114L8.778 38.8166L8.75 38.8253V40.6803C8.75 41.1651 8.358 41.5553 7.875 41.5553H0.875C0.392 41.5553 0 41.1651 0 40.6803V28.4303C0 27.9473 0.392 27.5553 0.875 27.5553H7.875C8.358 27.5553 8.75 27.9473 8.75 28.4303V29.4681C13.2965 28.8608 17.7467 29.1268 19.3585 29.5976L29.0377 32.4378C29.687 32.6286 30.17 32.9663 30.5235 33.3776ZM26.5171 15.7703C25.4908 16.0362 24.7363 16.8393 24.7363 17.7985C24.7363 19.2252 26.3372 19.6952 27.0364 19.9004L27.0389 19.9012C28.2963 20.2444 28.2963 20.5876 28.2963 20.7015C28.2963 21.1207 27.8152 21.4748 27.2439 21.4748C26.8151 21.4748 26.1246 21.1967 25.703 20.8562C25.4007 20.6107 24.9399 20.6391 24.6782 20.9227C24.4151 21.2048 24.4471 21.6335 24.7494 21.8791C25.2393 22.2766 25.8978 22.5818 26.5171 22.7297V22.9467C26.5171 23.3211 26.8427 23.625 27.2439 23.625C27.6451 23.625 27.9707 23.3211 27.9707 22.9467V22.7283C28.997 22.4624 29.75 21.6593 29.75 20.7015C29.75 19.2269 28.0172 18.7535 27.4605 18.6029C26.3441 18.276 26.19 18.0223 26.19 17.7985C26.19 17.3793 26.6726 17.0252 27.2439 17.0252C27.6378 17.0252 27.9969 17.188 28.1815 17.4498C28.401 17.7645 28.8531 17.8473 29.186 17.6452C29.5218 17.4403 29.6163 17.0198 29.3968 16.7064C29.0755 16.2479 28.558 15.9223 27.9707 15.769V15.5533C27.9707 15.1789 27.6451 14.875 27.2439 14.875C26.8427 14.875 26.5171 15.1789 26.5171 15.5533V15.7703ZM21.9888 12.25C21.5414 12.25 21.1782 11.906 21.1782 11.4787V11.3475C20.593 11.1917 19.9851 10.9017 19.5279 10.5222C19.1907 10.2414 19.155 9.75551 19.4501 9.43464C19.7419 9.11376 20.2542 9.07828 20.593 9.35904C21.021 9.71386 21.6516 9.93446 21.9888 9.93446C22.4719 9.93446 22.8788 9.63827 22.8788 9.28962C22.8788 8.9888 22.2709 8.75741 21.7619 8.61548C21.068 8.40876 19.476 7.93362 19.476 6.46038C19.476 5.50238 20.191 4.69557 21.1782 4.40092V4.27133C21.1782 3.84556 21.5414 3.5 21.9888 3.5C22.4363 3.5 22.7994 3.84556 22.7994 4.27133V4.40709C23.3522 4.5737 23.8386 4.88994 24.145 5.33577C24.3881 5.69213 24.2844 6.17035 23.9083 6.4033C23.5387 6.6347 23.0345 6.53905 22.7864 6.17961C22.634 5.95901 22.3212 5.81554 21.9888 5.81554C21.5057 5.81554 21.0972 6.11173 21.0972 6.46038C21.0972 6.56219 21.0972 6.8013 22.2304 7.13915C23.7316 7.55567 24.5 8.28072 24.5 9.28962C24.5 10.2476 23.7851 11.0544 22.7994 11.3491V11.4787C22.7994 11.906 22.4363 12.25 21.9888 12.25Z"
        fill="#ffffff"/>
</svg>
