<svg width="80" height="80" viewBox="0 0 32 32" fill="none" xmlns="http://www.w3.org/2000/svg">
  <path fill-rule="evenodd" clip-rule="evenodd"
        d="M16 32C24.8366 32 32 24.8366 32 16C32 7.16344 24.8366 0 16 0C7.16344 0 0 7.16344 0 16C0 24.8366 7.16344 32 16 32ZM24.0439 12.8839C24.5321 12.3957 24.5321 11.6043 24.0439 11.1161C23.5558 10.628 22.7643 10.628 22.2761 11.1161L14.1504 19.2418L10.0741 15.2536C9.58067 14.7709 8.78926 14.7795 8.30646 15.273C7.82367 15.7664 7.83232 16.5578 8.32578 17.0406L13.2859 21.8935L14.1696 22.7582L15.0439 21.8839L24.0439 12.8839Z"
        fill="#4A944A"/>
</svg>
